<svg width="46" height="46" viewBox="0 0 46 46" fill="none" xmlns="http://www.w3.org/2000/svg">
<path d="M23 43.125C11.8853 43.125 2.875 34.1147 2.875 23C2.875 11.8853 11.8853 2.875 23 2.875C34.1147 2.875 43.125 11.8853 43.125 23C43.125 34.1147 34.1147 43.125 23 43.125ZM23 46C35.7025 46 46 35.7025 46 23C46 10.2975 35.7025 0 23 0C10.2975 0 0 10.2975 0 23C0 35.7025 10.2975 46 23 46Z" fill="#703402"/>
<path d="M23 37.375C15.0609 37.375 8.625 30.9391 8.625 23C8.625 15.0609 15.0609 8.625 23 8.625C30.9391 8.625 37.375 15.0609 37.375 23C37.375 30.9391 30.9391 37.375 23 37.375ZM23 40.25C32.5269 40.25 40.25 32.5269 40.25 23C40.25 13.4731 32.5269 5.75 23 5.75C13.4731 5.75 5.75 13.4731 5.75 23C5.75 32.5269 13.4731 40.25 23 40.25Z" fill="#703402"/>
<path d="M23 31.625C18.2365 31.625 14.375 27.7635 14.375 23C14.375 18.2365 18.2365 14.375 23 14.375C27.7635 14.375 31.625 18.2365 31.625 23C31.625 27.7635 27.7635 31.625 23 31.625ZM23 34.5C29.3513 34.5 34.5 29.3513 34.5 23C34.5 16.6487 29.3513 11.5 23 11.5C16.6487 11.5 11.5 16.6487 11.5 23C11.5 29.3513 16.6487 34.5 23 34.5Z" fill="#703402"/>
<path d="M27.3126 23C27.3126 25.3817 25.3818 27.3125 23.0001 27.3125C20.6183 27.3125 18.6876 25.3817 18.6876 23C18.6876 20.6183 20.6183 18.6875 23.0001 18.6875C25.3818 18.6875 27.3126 20.6183 27.3126 23Z" fill="#703402"/>
</svg>
