<svg width="46" height="46" viewBox="0 0 46 46" fill="none" xmlns="http://www.w3.org/2000/svg">
<path d="M25.875 15.8125C25.875 15.0186 25.2314 14.375 24.4375 14.375C23.6436 14.375 23 15.0186 23 15.8125V20.125H18.6875C17.8936 20.125 17.25 20.7686 17.25 21.5625C17.25 22.3564 17.8936 23 18.6875 23H23V27.3125C23 28.1064 23.6436 28.75 24.4375 28.75C25.2314 28.75 25.875 28.1064 25.875 27.3125V23H30.1875C30.9814 23 31.625 22.3564 31.625 21.5625C31.625 20.7686 30.9814 20.125 30.1875 20.125H25.875V15.8125Z" fill="#703402"/>
<path d="M1.4375 2.875C0.643591 2.875 0 3.51859 0 4.3125C0 5.10641 0.643591 5.75 1.4375 5.75H4.62763L5.78252 10.3696L10.0871 33.3274C10.2146 34.0073 10.8083 34.5 11.5 34.5H14.375C11.1994 34.5 8.625 37.0744 8.625 40.25C8.625 43.4256 11.1994 46 14.375 46C17.5506 46 20.125 43.4256 20.125 40.25C20.125 37.0744 17.5506 34.5 14.375 34.5H34.5C31.3244 34.5 28.75 37.0744 28.75 40.25C28.75 43.4256 31.3244 46 34.5 46C37.6756 46 40.25 43.4256 40.25 40.25C40.25 37.0744 37.6756 34.5 34.5 34.5H37.375C38.0667 34.5 38.6604 34.0073 38.7879 33.3274L43.1004 10.3274C43.1792 9.9071 43.0668 9.47353 42.7937 9.14446C42.5206 8.81539 42.1151 8.625 41.6875 8.625H8.30987L7.14458 3.96386C6.9846 3.32393 6.40962 2.875 5.75 2.875H1.4375ZM12.693 31.625L8.91958 11.5H39.9554L36.182 31.625H12.693ZM17.25 40.25C17.25 41.8378 15.9628 43.125 14.375 43.125C12.7872 43.125 11.5 41.8378 11.5 40.25C11.5 38.6622 12.7872 37.375 14.375 37.375C15.9628 37.375 17.25 38.6622 17.25 40.25ZM37.375 40.25C37.375 41.8378 36.0878 43.125 34.5 43.125C32.9122 43.125 31.625 41.8378 31.625 40.25C31.625 38.6622 32.9122 37.375 34.5 37.375C36.0878 37.375 37.375 38.6622 37.375 40.25Z" fill="#703402"/>
</svg>
