<svg width="46" height="46" viewBox="0 0 46 46" fill="none" xmlns="http://www.w3.org/2000/svg">
<path d="M0 1.51667C0 0.679035 0.679035 0 1.51667 0H6.06667C6.76261 0 7.36925 0.473651 7.53805 1.14882L8.76751 6.06667H43.9833C44.4345 6.06667 44.8623 6.26754 45.1504 6.61474C45.4386 6.96193 45.5572 7.41938 45.474 7.86284L40.924 32.1295C40.7895 32.8468 40.1632 33.3667 39.4333 33.3667H36.4H15.1667H12.1333C11.4035 33.3667 10.7771 32.8468 10.6426 32.1295L6.10098 7.9073L4.88249 3.03333H1.51667C0.679035 3.03333 0 2.3543 0 1.51667ZM15.1667 33.3667C11.8161 33.3667 9.1 36.0828 9.1 39.4333C9.1 42.7839 11.8161 45.5 15.1667 45.5C18.5172 45.5 21.2333 42.7839 21.2333 39.4333C21.2333 36.0828 18.5172 33.3667 15.1667 33.3667ZM36.4 33.3667C33.0495 33.3667 30.3333 36.0828 30.3333 39.4333C30.3333 42.7839 33.0495 45.5 36.4 45.5C39.7505 45.5 42.4667 42.7839 42.4667 39.4333C42.4667 36.0828 39.7505 33.3667 36.4 33.3667ZM15.1667 36.4C16.8419 36.4 18.2 37.7581 18.2 39.4333C18.2 41.1086 16.8419 42.4667 15.1667 42.4667C13.4914 42.4667 12.1333 41.1086 12.1333 39.4333C12.1333 37.7581 13.4914 36.4 15.1667 36.4ZM36.4 36.4C38.0753 36.4 39.4333 37.7581 39.4333 39.4333C39.4333 41.1086 38.0753 42.4667 36.4 42.4667C34.7247 42.4667 33.3667 41.1086 33.3667 39.4333C33.3667 37.7581 34.7247 36.4 36.4 36.4Z" fill="#703402"/>
</svg>
