<svg width="46" height="46" viewBox="0 0 46 46" fill="none" xmlns="http://www.w3.org/2000/svg">
<path d="M18.6875 17.25C17.8936 17.25 17.25 17.8936 17.25 18.6875V27.3125C17.25 28.1064 17.8936 28.75 18.6875 28.75H27.3125C28.1064 28.75 28.75 28.1064 28.75 27.3125V18.6875C28.75 17.8936 28.1064 17.25 27.3125 17.25H18.6875Z" fill="#703402"/>
<path d="M15.8125 1.4375C15.8125 0.643591 15.1689 0 14.375 0C13.5811 0 12.9375 0.643591 12.9375 1.4375V5.75C8.96795 5.75 5.75 8.96795 5.75 12.9375H1.4375C0.643591 12.9375 0 13.5811 0 14.375C0 15.1689 0.643591 15.8125 1.4375 15.8125H5.75V18.6875H1.4375C0.643591 18.6875 0 19.3311 0 20.125C0 20.9189 0.643591 21.5625 1.4375 21.5625H5.75V24.4375H1.4375C0.643591 24.4375 0 25.0811 0 25.875C0 26.6689 0.643591 27.3125 1.4375 27.3125H5.75V30.1875H1.4375C0.643591 30.1875 0 30.8311 0 31.625C0 32.4189 0.643591 33.0625 1.4375 33.0625H5.75C5.75 37.032 8.96795 40.25 12.9375 40.25V44.5625C12.9375 45.3564 13.5811 46 14.375 46C15.1689 46 15.8125 45.3564 15.8125 44.5625V40.25H18.6875V44.5625C18.6875 45.3564 19.3311 46 20.125 46C20.9189 46 21.5625 45.3564 21.5625 44.5625V40.25H24.4375V44.5625C24.4375 45.3564 25.0811 46 25.875 46C26.6689 46 27.3125 45.3564 27.3125 44.5625V40.25H30.1875V44.5625C30.1875 45.3564 30.8311 46 31.625 46C32.4189 46 33.0625 45.3564 33.0625 44.5625V40.25C37.032 40.25 40.25 37.032 40.25 33.0625H44.5625C45.3564 33.0625 46 32.4189 46 31.625C46 30.8311 45.3564 30.1875 44.5625 30.1875H40.25V27.3125H44.5625C45.3564 27.3125 46 26.6689 46 25.875C46 25.0811 45.3564 24.4375 44.5625 24.4375H40.25V21.5625H44.5625C45.3564 21.5625 46 20.9189 46 20.125C46 19.3311 45.3564 18.6875 44.5625 18.6875H40.25V15.8125H44.5625C45.3564 15.8125 46 15.1689 46 14.375C46 13.5811 45.3564 12.9375 44.5625 12.9375H40.25C40.25 8.96795 37.032 5.75 33.0625 5.75V1.4375C33.0625 0.643591 32.4189 0 31.625 0C30.8311 0 30.1875 0.643591 30.1875 1.4375V5.75H27.3125V1.4375C27.3125 0.643591 26.6689 0 25.875 0C25.0811 0 24.4375 0.643591 24.4375 1.4375V5.75H21.5625V1.4375C21.5625 0.643591 20.9189 0 20.125 0C19.3311 0 18.6875 0.643591 18.6875 1.4375V5.75H15.8125V1.4375ZM18.6875 14.375H27.3125C29.6942 14.375 31.625 16.3058 31.625 18.6875V27.3125C31.625 29.6942 29.6942 31.625 27.3125 31.625H18.6875C16.3058 31.625 14.375 29.6942 14.375 27.3125V18.6875C14.375 16.3058 16.3058 14.375 18.6875 14.375Z" fill="#703402"/>
</svg>
