<svg width="46" height="46" viewBox="0 0 46 46" fill="none" xmlns="http://www.w3.org/2000/svg">
<path d="M23 46C35.7025 46 46 35.7025 46 23C46 10.2975 35.7025 0 23 0C10.2975 0 0 10.2975 0 23C0 35.7025 10.2975 46 23 46ZM20.125 18.6875C20.125 20.1278 19.6543 19.8261 18.931 19.3626C18.4583 19.0596 17.8776 18.6875 17.25 18.6875C16.6224 18.6875 16.0417 19.0596 15.569 19.3626C14.8457 19.8261 14.375 20.1278 14.375 18.6875C14.375 16.3058 15.6622 14.375 17.25 14.375C18.8378 14.375 20.125 16.3058 20.125 18.6875ZM35.452 27.3135C35.9654 28.2037 35.9647 29.3001 35.4502 30.1896C32.969 34.4788 28.3245 37.375 23.0001 37.375C17.6757 37.375 13.0311 34.4788 10.55 30.1896C10.0354 29.3001 10.0347 28.2037 10.5481 27.3135C11.0616 26.4234 12.011 25.875 13.0386 25.875H32.9616C33.9892 25.875 34.9386 26.4234 35.452 27.3135ZM30.431 19.3626C29.9583 19.0596 29.3776 18.6875 28.75 18.6875C28.1224 18.6875 27.5417 19.0596 27.069 19.3626C26.3457 19.8261 25.875 20.1278 25.875 18.6875C25.875 16.3058 27.1622 14.375 28.75 14.375C30.3378 14.375 31.625 16.3058 31.625 18.6875C31.625 20.1278 31.1543 19.8261 30.431 19.3626Z" fill="#703402"/>
</svg>
