<svg width="46" height="46" viewBox="0 0 46 46" fill="none" xmlns="http://www.w3.org/2000/svg">
<path d="M25.7059 1.2513C24.0147 0.349339 21.9853 0.349339 20.2941 1.2513L3.04412 10.4513C1.1704 11.4506 0 13.4013 0 15.5248V16.4261L12.1371 23.5399C12.2077 23.3751 12.284 23.2124 12.3661 23.0521C14.2811 19.3124 19.1585 17.5401 23 19.4585C26.8416 17.5401 31.719 19.3124 33.6339 23.0521C33.716 23.2124 33.7924 23.3751 33.863 23.5399L46 16.4261V15.5248C46 13.4013 44.8296 11.4506 42.9559 10.4513L25.7059 1.2513Z" fill="#703402"/>
<path d="M0 19.7586L11.5021 26.5002C11.4657 28.0566 11.856 29.7089 12.6972 31.3684L12.7064 31.3865L0 38.4457V19.7586Z" fill="#703402"/>
<path d="M0.169303 41.6405L14.2576 33.8136C15.8759 35.9133 18.2335 38.0307 21.4151 40.133L23 41.1803L24.585 40.133C27.7665 38.0307 30.1242 35.9133 31.7424 33.8137L45.8307 41.6405C45.2088 44.1442 42.9461 45.9998 40.25 45.9998H5.75C3.05389 45.9998 0.791171 44.1442 0.169303 41.6405Z" fill="#703402"/>
<path d="M46 38.4457L33.2936 31.3866L33.3028 31.3684C34.144 29.7088 34.5344 28.0566 34.498 26.5001L46 19.7586V38.4457Z" fill="#703402"/>
<path d="M23 22.9791C27.7851 18.0607 39.7479 26.6679 23 37.7343C6.25211 26.6679 18.2149 18.0607 23 22.9791Z" fill="#703402"/>
</svg>
