<svg width="46" height="46" viewBox="0 0 46 46" fill="none" xmlns="http://www.w3.org/2000/svg">
<path d="M30.1875 23C30.1875 26.9695 26.9695 30.1875 23 30.1875C19.0305 30.1875 15.8125 26.9695 15.8125 23C15.8125 19.0305 19.0305 15.8125 23 15.8125C26.9695 15.8125 30.1875 19.0305 30.1875 23Z" fill="#703402"/>
<path d="M0 23C0 23 8.625 7.1875 23 7.1875C37.375 7.1875 46 23 46 23C46 23 37.375 38.8125 23 38.8125C8.625 38.8125 0 23 0 23ZM23 33.0625C28.5574 33.0625 33.0625 28.5574 33.0625 23C33.0625 17.4426 28.5574 12.9375 23 12.9375C17.4426 12.9375 12.9375 17.4426 12.9375 23C12.9375 28.5574 17.4426 33.0625 23 33.0625Z" fill="#703402"/>
</svg>
