<svg width="1440" height="93" viewBox="0 0 1440 93" fill="none" xmlns="http://www.w3.org/2000/svg">
<mask id="mask0_110_700" style="mask-type:alpha" maskUnits="userSpaceOnUse" x="0" y="0" width="1440" height="93">
<rect width="1440" height="93" fill="#D9D9D9"/>
</mask>
<g mask="url(#mask0_110_700)">
<path d="M39 26C27.9543 26 19 34.9543 19 46C19 57.0457 27.9543 66 39 66C50.0457 66 59 57.0457 59 46C59 34.9543 50.0457 26 39 26ZM47.75 44.75C48.4404 44.75 49 45.3096 49 46C49 46.6904 48.4404 47.25 47.75 47.25H33.2678L38.6339 52.6161C39.122 53.1043 39.122 53.8957 38.6339 54.3839C38.1457 54.872 37.3543 54.872 36.8661 54.3839L29.3661 46.8839C28.878 46.3957 28.878 45.6043 29.3661 45.1161L36.8661 37.6161C37.3543 37.128 38.1457 37.128 38.6339 37.6161C39.122 38.1043 39.122 38.8957 38.6339 39.3839L33.2678 44.75H47.75Z" fill="white"/>
</g>
</svg>
