<svg width="70" height="70" viewBox="0 0 70 70" fill="none" xmlns="http://www.w3.org/2000/svg">
<path d="M35 0C54.33 0 70 15.67 70 35C70 54.33 54.33 70 35 70C15.67 70 0 54.33 0 35C0 15.67 15.67 0 35 0ZM19.6875 32.8125C18.4794 32.8125 17.5 33.7919 17.5 35C17.5 36.2081 18.4794 37.1875 19.6875 37.1875H45.0314L35.6407 46.5782C34.7864 47.4325 34.7864 48.8175 35.6407 49.6718C36.495 50.5261 37.88 50.5261 38.7343 49.6718L51.8593 36.5468C52.7136 35.6925 52.7136 34.3075 51.8593 33.4532L38.7343 20.3282C37.88 19.4739 36.495 19.4739 35.6407 20.3282C34.7864 21.1825 34.7864 22.5675 35.6407 23.4218L45.0314 32.8125H19.6875Z" fill="#FFE9D7"/>
</svg>
