<svg width="132" height="26" viewBox="0 0 132 26" fill="none" xmlns="http://www.w3.org/2000/svg">
<path d="M115.577 8.31813L118.946 1.2875C119.098 0.971726 119.378 0.813395 119.658 0.812504C119.941 0.811608 120.223 0.969942 120.375 1.2875L123.745 8.31813L131.302 9.44892C131.714 9.51059 131.973 9.87691 132 10.2695C132.003 10.315 132.003 10.3609 132 10.4067C131.985 10.6179 131.902 10.8274 131.737 10.9925L126.303 16.4471L127.583 24.1325C127.703 24.8531 127.028 25.4172 126.432 25.0944L119.661 21.4285L112.89 25.0944C112.815 25.1348 112.739 25.1612 112.664 25.1753C112.137 25.2737 111.633 24.763 111.738 24.1325L113.018 16.4471L107.585 10.9925C107.402 10.8093 107.319 10.5716 107.319 10.3375C107.319 10.1644 107.365 9.9933 107.449 9.84765C107.568 9.64202 107.765 9.48709 108.02 9.44892L115.577 8.31813ZM119.658 19.5431C119.781 19.5427 119.904 19.5731 120.017 19.6343L125.703 22.7126L124.632 16.282C124.581 15.9789 124.676 15.6685 124.883 15.4611L129.367 10.9597L123.116 10.0242C122.857 9.98553 122.632 9.81167 122.51 9.55729L119.661 3.6125L119.658 3.61748V19.5431Z" fill="#FFBF00"/>
<path d="M59.2314 25.0944C58.6353 25.4172 57.9602 24.8531 58.0803 24.1325L59.3603 16.4471L53.9264 10.9925C53.4186 10.4828 53.6815 9.55072 54.3618 9.44892L61.9186 8.31813L65.288 1.2875C65.5915 0.654168 66.4137 0.654168 66.7172 1.2875L70.0866 8.31813L77.6434 9.44892C78.3237 9.55072 78.5866 10.4828 78.0788 10.9925L72.6449 16.4471L73.9249 24.1325C74.045 24.8531 73.3699 25.4172 72.7738 25.0944L66.0026 21.4285L59.2314 25.0944Z" fill="#FFBF00"/>
<path d="M86.0605 25.0944C85.4644 25.4172 84.7893 24.8531 84.9094 24.1325L86.1894 16.4471L80.7555 10.9925C80.2477 10.4828 80.5106 9.55072 81.1909 9.44892L88.7477 8.31813L92.1171 1.2875C92.4206 0.654168 93.2428 0.654168 93.5463 1.2875L96.9157 8.31813L104.473 9.44892C105.153 9.55072 105.416 10.4828 104.908 10.9925L99.474 16.4471L100.754 24.1325C100.874 24.8531 100.199 25.4172 99.6029 25.0944L92.8317 21.4285L86.0605 25.0944Z" fill="#FFBF00"/>
<path d="M32.4018 25.0944C31.8057 25.4172 31.1306 24.8531 31.2507 24.1325L32.5307 16.4471L27.0968 10.9925C26.589 10.4828 26.8519 9.55072 27.5322 9.44892L35.089 8.31813L38.4584 1.2875C38.7619 0.654168 39.5841 0.654168 39.8876 1.2875L43.257 8.31813L50.8138 9.44892C51.4941 9.55072 51.757 10.4828 51.2492 10.9925L45.8153 16.4471L47.0954 24.1325C47.2154 24.8531 46.5403 25.4172 45.9442 25.0944L39.173 21.4285L32.4018 25.0944Z" fill="#FFBF00"/>
<path d="M5.57272 25.0944C4.97657 25.4172 4.30154 24.8531 4.42156 24.1325L5.70157 16.4471L0.267726 10.9925C-0.240095 10.4828 0.0227781 9.55072 0.703085 9.44892L8.25988 8.31813L11.6293 1.2875C11.9328 0.654168 12.755 0.654168 13.0585 1.2875L16.4279 8.31813L23.9847 9.44892C24.665 9.55072 24.9279 10.4828 24.4201 10.9925L18.9862 16.4471L20.2662 24.1325C20.3863 24.8531 19.7112 25.4172 19.1151 25.0944L12.3439 21.4285L5.57272 25.0944Z" fill="#FFBF00"/>
</svg>
