<svg width="46" height="46" viewBox="0 0 46 46" fill="none" xmlns="http://www.w3.org/2000/svg">
<path fill-rule="evenodd" clip-rule="evenodd" d="M34.9929 15.224C39.9277 16.0099 43.125 17.2687 43.125 18.6875C43.125 21.0692 34.1147 23 23 23C11.8853 23 2.875 21.0692 2.875 18.6875C2.875 17.2687 6.07228 16.0099 11.0071 15.224L14.1111 3.84259C14.2567 3.30865 14.8064 2.99212 15.3438 3.12468C17.0124 3.53636 20.4909 4.31248 23 4.31248C25.5091 4.31248 28.9876 3.53636 30.6562 3.12468C31.1936 2.99212 31.7433 3.30866 31.8889 3.84259L34.9929 15.224ZM14.1263 16.8222C14.1403 16.6848 14.263 16.5848 14.4003 16.5988C17.0054 16.8639 19.9212 17.0125 23 17.0125C26.0788 17.0125 28.9946 16.8639 31.5997 16.5988C31.737 16.5848 31.8597 16.6848 31.8737 16.8222C31.8877 16.9595 31.7877 17.0822 31.6503 17.0962C29.0272 17.3632 26.0944 17.5125 23 17.5125C19.9056 17.5125 16.9728 17.3632 14.3497 17.0962C14.2123 17.0822 14.1123 16.9595 14.1263 16.8222ZM18.625 26.875H10.3048C10.4585 26.9603 10.5625 27.1242 10.5625 27.3125C10.5625 27.5886 10.3386 27.8125 10.0625 27.8125H6.75V37.25C6.75 38.3545 7.64543 39.25 8.75 39.25H17.125C18.2296 39.25 19.125 38.3545 19.125 37.25V32.0062L18.8456 32.0993L18.5294 31.1506L19.125 30.9521V27.375C19.125 27.0988 18.9011 26.875 18.625 26.875ZM20.125 30.6188V27.375C20.125 26.5466 19.4534 25.875 18.625 25.875H7.25C6.62049 25.875 6.08155 26.2628 5.85903 26.8125H5.75C5.47386 26.8125 5.25 27.0363 5.25 27.3125C5.25 27.5886 5.47386 27.8125 5.75 27.8125V37.25C5.75 38.9068 7.09315 40.25 8.75 40.25H17.125C18.7819 40.25 20.125 38.9068 20.125 37.25V31.6729L22.2094 30.978C22.7226 30.807 23.2774 30.807 23.7906 30.978L25.875 31.6729V37.25C25.875 38.9068 27.2181 40.25 28.875 40.25H37.25C38.9069 40.25 40.25 38.9068 40.25 37.25V27.8125C40.5261 27.8125 40.75 27.5886 40.75 27.3125C40.75 27.0363 40.5261 26.8125 40.25 26.8125H40.141C39.9184 26.2628 39.3795 25.875 38.75 25.875H27.375C26.5466 25.875 25.875 26.5466 25.875 27.375V30.6188L24.1068 30.0294C23.3884 29.7899 22.6116 29.7899 21.8932 30.0294L20.125 30.6188ZM26.875 32.0062L27.1544 32.0993L27.4706 31.1506L26.875 30.9521V27.375C26.875 27.0988 27.0989 26.875 27.375 26.875H35.6953C35.5415 26.9603 35.4375 27.1242 35.4375 27.3125C35.4375 27.5886 35.6614 27.8125 35.9375 27.8125H39.25V37.25C39.25 38.3545 38.3546 39.25 37.25 39.25H28.875C27.7704 39.25 26.875 38.3545 26.875 37.25V32.0062Z" fill="#703402"/>
</svg>
