<svg width="31" height="29" viewBox="0 0 31 29" fill="none" xmlns="http://www.w3.org/2000/svg">
<path d="M15.5 1.8125C17.6401 1.8125 19.375 3.43547 19.375 5.4375V12.6875H11.625V5.4375C11.625 3.43547 13.3599 1.8125 15.5 1.8125ZM21.3125 12.6875V5.4375C21.3125 2.43445 18.7102 0 15.5 0C12.2898 0 9.6875 2.43445 9.6875 5.4375V12.6875C7.5474 12.6875 5.8125 14.3105 5.8125 16.3125V25.375C5.8125 27.377 7.5474 29 9.6875 29H21.3125C23.4526 29 25.1875 27.377 25.1875 25.375V16.3125C25.1875 14.3105 23.4526 12.6875 21.3125 12.6875Z" fill="black"/>
</svg>
