<svg width="46" height="46" viewBox="0 0 46 46" fill="none" xmlns="http://www.w3.org/2000/svg">
<path d="M27.3124 7.6808C27.3124 8.47471 27.956 9.1183 28.7499 9.1183C29.5438 9.1183 30.1874 8.47471 30.1874 7.6808V2.42407C30.1874 1.63016 29.5438 0.986572 28.7499 0.986572C27.956 0.986572 27.3124 1.63016 27.3124 2.42407V7.6808Z" fill="#703402"/>
<path d="M40.2499 7.78296C40.8113 7.22158 40.8113 6.31141 40.2499 5.75003C39.6886 5.18865 38.7784 5.18865 38.217 5.75003L34.4999 9.4671C33.9386 10.0285 33.9386 10.9386 34.4999 11.5C35.0613 12.0614 35.9715 12.0614 36.5329 11.5L40.2499 7.78296Z" fill="#703402"/>
<path d="M20.967 11.5C21.5284 12.0614 22.4386 12.0614 22.9999 11.5C23.5613 10.9387 23.5613 10.0285 22.9999 9.4671L19.2829 5.75003C18.7215 5.18865 17.8113 5.18865 17.2499 5.75003C16.6886 6.31141 16.6886 7.22158 17.2499 7.78296L20.967 11.5Z" fill="#703402"/>
<path d="M19.1807 18.6875C19.9746 18.6875 20.6182 18.0439 20.6182 17.25C20.6182 16.4561 19.9746 15.8125 19.1807 15.8125H13.924C13.1301 15.8125 12.4865 16.4561 12.4865 17.25C12.4865 18.0439 13.1301 18.6875 13.924 18.6875H19.1807Z" fill="#703402"/>
<path d="M43.5759 18.6875C44.3698 18.6875 45.0134 18.0439 45.0134 17.25C45.0134 16.4561 44.3698 15.8125 43.5759 15.8125H38.3192C37.5253 15.8125 36.8817 16.4561 36.8817 17.25C36.8817 18.0439 37.5253 18.6875 38.3192 18.6875H43.5759Z" fill="#703402"/>
<path d="M38.217 28.75C38.7784 29.3114 39.6886 29.3114 40.2499 28.75C40.8113 28.1887 40.8113 27.2785 40.2499 26.7171L36.5329 23C35.9715 22.4387 35.0613 22.4387 34.4999 23C33.9386 23.5614 33.9386 24.4716 34.4999 25.033L38.217 28.75Z" fill="#703402"/>
<path d="M27.3124 32.076C27.3124 32.8699 27.956 33.5135 28.7499 33.5135C29.5438 33.5135 30.1874 32.8699 30.1874 32.076V26.8193C30.1874 26.0253 29.5438 25.3818 28.7499 25.3818C27.956 25.3818 27.3124 26.0253 27.3124 26.8193V32.076Z" fill="#703402"/>
<path d="M32.6415 17.4244C33.2028 16.863 33.2028 15.9529 32.6415 15.3915L30.6085 13.3586C30.0472 12.7972 29.137 12.7972 28.5756 13.3586L24.8585 17.0756C24.2972 17.637 24.2972 18.5472 24.8585 19.1086L26.8915 21.1415C27.4528 21.7029 28.363 21.7029 28.9244 21.1415L32.6415 17.4244Z" fill="#703402"/>
<path d="M24.0165 26.0494C24.5778 25.488 24.5778 24.5779 24.0165 24.0165L21.9835 21.9836C21.4222 21.4222 20.512 21.4222 19.9506 21.9836L1.85853 40.0756C1.29715 40.637 1.29716 41.5472 1.85853 42.1086L3.89147 44.1415C4.45285 44.7029 5.36302 44.7029 5.9244 44.1415L24.0165 26.0494Z" fill="#703402"/>
</svg>
