<svg width="46" height="46" viewBox="0 0 46 46" fill="none" xmlns="http://www.w3.org/2000/svg">
<path d="M31.2812 17.0625C31.2812 21.7742 27.4617 25.5938 22.75 25.5938C18.0383 25.5938 14.2188 21.7742 14.2188 17.0625C14.2188 12.3508 18.0383 8.53125 22.75 8.53125C27.4617 8.53125 31.2812 12.3508 31.2812 17.0625Z" fill="#703402"/>
<path fill-rule="evenodd" clip-rule="evenodd" d="M0 22.75C0 10.1855 10.1855 0 22.75 0C35.3145 0 45.5 10.1855 45.5 22.75C45.5 35.3145 35.3145 45.5 22.75 45.5C10.1855 45.5 0 35.3145 0 22.75ZM22.75 2.84375C11.7561 2.84375 2.84375 11.7561 2.84375 22.75C2.84375 27.4519 4.47395 31.7731 7.19998 35.1792C9.22208 31.9218 13.6632 28.4375 22.75 28.4375C31.8368 28.4375 36.2779 31.9218 38.3 35.1792C41.0261 31.7731 42.6562 27.4519 42.6562 22.75C42.6562 11.7561 33.7439 2.84375 22.75 2.84375Z" fill="#703402"/>
</svg>
