<svg width="21" height="21" viewBox="0 0 21 21" fill="none" xmlns="http://www.w3.org/2000/svg">
<path d="M15.2648 13.4471C16.2928 12.0475 16.9 10.3197 16.9 8.45C16.9 3.78319 13.1168 0 8.45 0C3.78319 0 0 3.78319 0 8.45C0 13.1168 3.78319 16.9 8.45 16.9C10.3202 16.9 12.0484 16.2925 13.4482 15.264L13.4471 15.2648C13.4854 15.3168 13.5281 15.3666 13.5752 15.4136L18.5808 20.4192C19.0884 20.9269 19.9116 20.9269 20.4192 20.4192C20.9269 19.9116 20.9269 19.0884 20.4192 18.5808L15.4136 13.5752C15.3666 13.5281 15.3168 13.4854 15.2648 13.4471ZM15.6 8.45C15.6 12.3988 12.3988 15.6 8.45 15.6C4.50116 15.6 1.3 12.3988 1.3 8.45C1.3 4.50116 4.50116 1.3 8.45 1.3C12.3988 1.3 15.6 4.50116 15.6 8.45Z" fill="black"/>
</svg>
