<svg width="46" height="46" viewBox="0 0 46 46" fill="none" xmlns="http://www.w3.org/2000/svg">
<path fill-rule="evenodd" clip-rule="evenodd" d="M30.6085 1.85853C31.1699 1.29716 32.08 1.29716 32.6414 1.85853L44.1414 13.3585C44.7028 13.9199 44.7028 14.8301 44.1414 15.3915L38.673 20.8599L36.2912 30.3871C35.9223 31.8626 34.8034 33.0348 33.3466 33.4718L3.60596 42.394L12.5282 12.6533C12.9652 11.1965 14.1373 10.0777 15.6128 9.70878L25.14 7.32699L30.6085 1.85853ZM25.434 10.217L16.3101 12.4979C15.8183 12.6209 15.4276 12.9939 15.2819 13.4795L7.89394 38.106L32.5205 30.718C33.0061 30.5724 33.379 30.1817 33.502 29.6898L35.783 20.566L25.434 10.217Z" fill="#703402"/>
<path fill-rule="evenodd" clip-rule="evenodd" d="M8.14182 38.0316L23.0001 25.875C24.5879 25.875 25.8751 24.5878 25.8751 23C25.8751 21.4122 24.5879 20.125 23.0001 20.125C21.4123 20.125 20.1251 21.4122 20.1251 23L7.96828 37.8581L7.89394 38.106L8.14182 38.0316Z" fill="#703402"/>
</svg>
